<svg width="151" height="47" viewBox="0 0 151 47" fill="none" xmlns="http://www.w3.org/2000/svg">
<g filter="url(#filter0_d_7_224)">
<path d="M24.6385 1.1898C16.545 -0.238451 11.3478 6.74411 9.76084 10.4139C13.1331 8.62861 20.8298 5.47456 24.6385 7.14085C28.4471 8.80714 28.2091 15.1748 27.614 18.1503C27.5717 18.2208 27.6383 18.0475 27.614 18.1503C28.3979 19.2887 28.955 20.5108 29.5308 21.3215C29.5848 21.3554 29.6402 21.3894 29.6968 21.4234C33.0294 17.6147 33.8626 12.4968 33.8626 10.4139C34.1601 7.93432 32.7319 2.61805 24.6385 1.1898Z" fill="#6A9696"/>
<path d="M31.1969 31.6484C30.3012 31.5833 29.4545 31.3677 28.7844 30.9215C27.4748 31.9404 23.8556 33.8132 21.9605 32.7303C19.8776 31.5401 17.7947 29.1597 17.7947 27.9695C17.7947 26.7793 18.985 24.3989 20.4727 24.994C21.6629 25.4701 24.3108 25.1924 25.2034 24.994L23.7458 23.2087C21.7621 21.3242 16.7236 18.7454 13.629 23.5062C10.5345 28.2671 13.9266 33.2263 16.0094 35.1108C17.6956 36.9953 22.9722 39.8716 30.5895 36.301C33.446 35.1108 35.4495 32.0361 35.9454 30.945C34.8484 31.1279 32.6897 31.8834 31.1969 31.6484Z" fill="#6A9696"/>
<path d="M23.7458 23.2087C24.5393 24.0021 26.4238 26.3627 27.614 29.4573C27.8628 30.1042 28.2719 30.5803 28.7844 30.9215C28.9142 30.8205 29.0213 30.728 29.1017 30.6475C29.4688 31.1981 30.2604 31.501 31.1969 31.6484C32.8929 31.7718 34.7646 31.3557 35.9454 30.945L37.1073 25.7165C36.906 25.652 37.7103 25.7165 37.1073 25.7165C34.1969 25.7165 32.1578 25.0197 29.5308 21.3215C27.5111 18.4113 28.0144 18.1503 27.614 18.1503C26.8036 16.9734 25.7578 15.8679 24.6385 14.2821C15.8022 5.4459 6.41994 20.0921 5.12329 21.3397C6.79812 20.2159 10.9386 17.954 15.1168 17.2576C19.4015 15.5913 22.6548 20.5307 23.7458 23.2087Z" fill="#3D5A66"/>
<path d="M33.565 25.3019C35.152 21.7313 39.397 14.5201 42.4916 15.4723C40.1112 21.1853 39.5161 22.6221 39.5161 22.4238C38.0283 25.507 36.6596 26.7302 33.565 25.3019Z" fill="#D9CAAE"/>
<path d="M46.9549 10.7115L52.9059 30.3499H56.7741L60.6423 16.6625L64.808 30.3499H68.3786L74.3297 10.7115H70.1639L66.5933 25.5891L62.13 10.7115H59.1545L54.9888 25.5891L50.8231 10.7115H46.9549Z" fill="#3D5A66"/>
<path fill-rule="evenodd" clip-rule="evenodd" d="M77.3052 24.1013H87.7195C87.8187 21.225 86.5293 15.4723 80.5783 15.4723C74.6272 15.4723 73.5362 21.225 73.7346 24.1013C73.9329 26.1842 75.5794 30.3499 80.5783 30.3499C85.5772 30.3499 86.8269 28.3662 86.8269 27.3744L84.744 26.1842C82.7603 27.735 78.4954 29.4896 77.3052 24.1013ZM84.4465 21.1258H77.3052C77.3052 20.3323 77.9598 18.6859 80.5783 18.4478C83.1967 18.2098 84.2481 20.134 84.4465 21.1258Z" fill="#3D5A66"/>
<path d="M90.1 10.7115V30.3499H93.373V22.316H101.704V19.3405H93.373V13.687H102.3V10.7115H90.1Z" fill="#3D5A66"/>
<path d="M104.68 10.4139V30.3499H107.953V10.4139H104.68Z" fill="#3D5A66"/>
<path fill-rule="evenodd" clip-rule="evenodd" d="M110.036 22.9111C110.334 25.3907 112.238 30.3499 117.475 30.3499C122.712 30.3499 124.418 25.3907 124.616 22.9111C124.715 20.4315 123.426 15.4723 117.475 15.4723C111.524 15.4723 110.036 20.4315 110.036 22.9111ZM117.475 27.3744C114.38 27.3744 113.408 24.3989 113.309 22.9111C113.408 21.3242 114.38 18.2098 117.475 18.4478C120.569 18.6859 121.343 21.5225 121.343 22.9111C121.343 24.3989 120.569 27.3744 117.475 27.3744Z" fill="#3D5A66"/>
<path d="M124.616 15.7699L129.377 30.3499H132.65L135.328 20.8283L138.303 30.3499H141.577L145.742 15.7699H142.469L139.791 25.8866L136.816 15.7699H133.84L131.162 25.8866L128.187 15.7699H124.616Z" fill="#3D5A66"/>
<path d="M27.614 18.1503C28.2091 15.1748 28.4471 8.80714 24.6385 7.14085C20.8298 5.47456 13.1331 8.62861 9.76084 10.4139C11.3478 6.74411 16.545 -0.238451 24.6385 1.1898C32.7319 2.61805 34.1601 7.93432 33.8626 10.4139C33.8626 12.4968 33.0294 17.6147 29.6968 21.4234C29.6402 21.3894 29.5848 21.3554 29.5308 21.3215M27.614 18.1503C27.5717 18.2208 27.6383 18.0475 27.614 18.1503ZM27.614 18.1503C28.3979 19.2887 28.955 20.5108 29.5308 21.3215M27.614 18.1503C26.8036 16.9734 25.7578 15.8679 24.6385 14.2821C15.8022 5.4459 6.41994 20.0921 5.12329 21.3397M27.614 18.1503C28.0144 18.1503 27.5111 18.4113 29.5308 21.3215M37.1073 25.7165C34.1969 25.7165 32.1578 25.0197 29.5308 21.3215M37.1073 25.7165L35.9454 30.945M37.1073 25.7165C36.906 25.652 37.7103 25.7165 37.1073 25.7165ZM37.1073 25.7165C37.5252 25.8502 37.2412 26.1181 37.1073 25.7165ZM35.9454 30.945C35.4495 32.0361 33.446 35.1108 30.5895 36.301C22.9722 39.8716 17.6956 36.9953 16.0094 35.1108C13.9266 33.2263 10.5345 28.2671 13.629 23.5062C16.7236 18.7454 21.7621 21.3242 23.7458 23.2087M35.9454 30.945C34.8484 31.1279 32.6897 31.8834 31.1969 31.6484M35.9454 30.945C34.7646 31.3557 32.8929 31.7718 31.1969 31.6484M23.7458 23.2087C24.5393 24.0021 26.4238 26.3627 27.614 29.4573C27.8628 30.1042 28.2719 30.5803 28.7844 30.9215M23.7458 23.2087C22.6548 20.5307 19.4015 15.5913 15.1168 17.2576C10.9386 17.954 6.79812 20.2159 5.12329 21.3397M23.7458 23.2087L25.2034 24.994C24.3108 25.1924 21.6629 25.4701 20.4727 24.994C18.985 24.3989 17.7947 26.7793 17.7947 27.9695C17.7947 29.1597 19.8776 31.5401 21.9605 32.7303C23.8556 33.8132 27.4748 31.9404 28.7844 30.9215M31.1969 31.6484C30.3012 31.5833 29.4545 31.3677 28.7844 30.9215M31.1969 31.6484C30.2604 31.501 29.4688 31.1981 29.1017 30.6475C29.0213 30.728 28.9142 30.8205 28.7844 30.9215M5.12329 21.3397C5.08058 21.3683 5.03947 21.3962 5 21.4234C5.02503 21.4234 5.06637 21.3944 5.12329 21.3397ZM33.565 25.3019C35.152 21.7313 39.397 14.5201 42.4916 15.4723C40.1112 21.1853 39.5161 22.6221 39.5161 22.4238C38.0283 25.507 36.6596 26.7302 33.565 25.3019ZM46.9549 10.7115L52.9059 30.3499H56.7741L60.6423 16.6625L64.808 30.3499H68.3786L74.3297 10.7115H70.164L66.5933 25.5891L62.13 10.7115H59.1545L54.9888 25.5891L50.8231 10.7115H46.9549ZM77.3052 21.1258H84.4465C84.2481 20.134 83.1967 18.2098 80.5783 18.4478C77.9598 18.6859 77.3052 20.3323 77.3052 21.1258ZM77.3052 24.1013H87.7195C87.8187 21.225 86.5293 15.4723 80.5783 15.4723C74.6272 15.4723 73.5362 21.225 73.7346 24.1013C73.9329 26.1842 75.5794 30.3499 80.5783 30.3499C85.5772 30.3499 86.8269 28.3662 86.8269 27.3744L84.744 26.1842C82.7603 27.735 78.4954 29.4896 77.3052 24.1013ZM90.1 10.7115V30.3499H93.373V22.316H101.704V19.3405H93.373V13.687H102.3V10.7115H90.1ZM104.68 10.4139V30.3499H107.953V10.4139H104.68ZM110.036 22.9111C110.334 25.3907 112.238 30.3499 117.475 30.3499C122.712 30.3499 124.418 25.3907 124.616 22.9111C124.715 20.4315 123.426 15.4723 117.475 15.4723C111.524 15.4723 110.036 20.4315 110.036 22.9111ZM113.309 22.9111C113.408 24.3989 114.38 27.3744 117.475 27.3744C120.569 27.3744 121.343 24.3989 121.343 22.9111C121.343 21.5225 120.569 18.6859 117.475 18.4478C114.38 18.2098 113.408 21.3242 113.309 22.9111ZM124.616 15.7699L129.377 30.3499H132.65L135.328 20.8283L138.303 30.3499H141.576L145.742 15.7699H142.469L139.791 25.8866L136.816 15.7699H133.84L131.162 25.8866L128.187 15.7699H124.616Z" stroke="black" stroke-width="0.5"/>
</g>
<defs>
<filter id="filter0_d_7_224" x="0.195068" y="0.749878" width="149.879" height="45.5001" filterUnits="userSpaceOnUse" color-interpolation-filters="sRGB">
<feFlood flood-opacity="0" result="BackgroundImageFix"/>
<feColorMatrix in="SourceAlpha" type="matrix" values="0 0 0 0 0 0 0 0 0 0 0 0 0 0 0 0 0 0 127 0" result="hardAlpha"/>
<feOffset dy="4"/>
<feGaussianBlur stdDeviation="2"/>
<feComposite in2="hardAlpha" operator="out"/>
<feColorMatrix type="matrix" values="0 0 0 0 0 0 0 0 0 0 0 0 0 0 0 0 0 0 0.25 0"/>
<feBlend mode="normal" in2="BackgroundImageFix" result="effect1_dropShadow_7_224"/>
<feBlend mode="normal" in="SourceGraphic" in2="effect1_dropShadow_7_224" result="shape"/>
</filter>
</defs>
</svg>
